<svg width="116" height="116" viewBox="0 0 116 116" fill="none" xmlns="http://www.w3.org/2000/svg">
<path d="M85.3415 85.3415C100.442 70.2412 100.442 45.7588 85.3415 30.6585C70.2412 15.5583 45.7588 15.5583 30.6585 30.6585C15.5583 45.7588 15.5583 70.2412 30.6585 85.3415C45.7588 100.442 70.2412 100.442 85.3415 85.3415Z" stroke="white" stroke-width="2"/>
<path fill-rule="evenodd" clip-rule="evenodd" d="M57.9979 33.8356L48.3314 58.0021L57.9982 82.1689L67.6645 58.0021L57.9979 33.8356ZM57.9986 64.8367C61.7738 64.8367 64.8343 61.7762 64.8343 58.001C64.834 54.2262 61.7738 51.166 57.999 51.1657C54.2238 51.1657 51.1632 54.2262 51.1632 58.0014C51.1632 61.7766 54.2234 64.8367 57.9986 64.8367Z" fill="white"/>
<path d="M48.3314 58.0021L46.0873 58.8995C45.8569 58.3233 45.8569 57.6808 46.0873 57.1046L48.3314 58.0021ZM57.9979 33.8356L55.7543 32.9378C56.1212 32.0204 57.0097 31.4189 57.998 31.4188C58.9863 31.4186 59.8746 32.0206 60.2418 32.938L57.9979 33.8356ZM57.9982 82.1689L60.2417 83.0662C59.8749 83.9839 58.9862 84.5856 57.998 84.5855C57.0097 84.5853 56.1211 83.9838 55.7542 83.0664L57.9982 82.1689ZM67.6645 58.0021L69.9085 57.1046C70.1389 57.6808 70.1389 58.3233 69.9085 58.8995L67.6645 58.0021ZM46.0873 57.1046L55.7543 32.9378L60.2418 34.733L50.5751 58.8999L46.0873 57.1046ZM55.7542 83.0664L46.0873 58.8995L50.5754 57.1046L60.2418 81.2712L55.7542 83.0664ZM69.9085 58.8995L60.2417 83.0662L55.7542 81.2713L65.4211 57.1046L69.9085 58.8995ZM60.2418 32.938L69.9085 57.1046L65.4208 58.8999L55.7543 34.7329L60.2418 32.938ZM67.251 58.0014C67.2506 63.1112 63.1084 67.2534 57.9989 67.2534L57.9989 62.4201C60.4392 62.4201 62.4177 60.4416 62.4177 58.0014H67.251ZM57.9986 48.749C63.1087 48.749 67.251 52.8913 67.251 58.0014H62.4177C62.4173 55.5608 60.4392 53.5827 57.9986 53.5823L57.9986 48.749ZM48.7466 58.001C48.7465 52.8915 52.8887 48.7492 57.9986 48.749L57.9986 53.5823C55.5584 53.5823 53.5799 55.5608 53.5799 58.001H48.7466ZM57.9989 67.2534C52.8888 67.2534 48.7466 63.1112 48.7466 58.001H53.5799C53.5799 60.4419 55.558 62.4201 57.9989 62.4201L57.9989 67.2534Z" fill="white"/>
</svg>
