<svg width="116" height="116" viewBox="0 0 116 116" fill="none" xmlns="http://www.w3.org/2000/svg">
<path d="M58 96.6667C79.355 96.6667 96.6667 79.355 96.6667 58C96.6667 36.645 79.355 19.3333 58 19.3333C36.645 19.3333 19.3333 36.645 19.3333 58C19.3333 79.355 36.645 96.6667 58 96.6667Z" stroke="white" stroke-width="2"/>
<path fill-rule="evenodd" clip-rule="evenodd" d="M75.0853 40.9117L51.1618 51.1647L40.9087 75.0887L64.8324 64.8353L75.0853 40.9117ZM53.1647 62.8333C55.8342 65.5028 60.1624 65.5028 62.8319 62.8333C65.5008 60.1639 65.5008 55.8361 62.8319 53.1667C60.1624 50.4972 55.8342 50.4972 53.1647 53.1667C50.4953 55.8361 50.4953 60.1639 53.1647 62.8333Z" fill="white"/>
<path d="M51.1618 51.1647L48.9404 50.2125C49.185 49.6422 49.6393 49.1878 50.2096 48.9433L51.1618 51.1647ZM75.0853 40.9117L74.1337 38.6904C75.0418 38.3012 76.0955 38.5041 76.7944 39.2028C77.4933 39.9016 77.6958 40.9553 77.3067 41.8637L75.0853 40.9117ZM40.9087 75.0887L41.8607 77.3096C40.9524 77.6992 39.8986 77.4962 39.1998 76.7973C38.5011 76.0984 38.2982 75.0447 38.6874 74.1366L40.9087 75.0887ZM64.8324 64.8353L67.0538 65.7875C66.8092 66.3578 66.3549 66.8121 65.7846 67.0567L64.8324 64.8353ZM50.2096 48.9433L74.1337 38.6904L76.0375 43.1329L52.1135 53.3861L50.2096 48.9433ZM38.6874 74.1366L48.9404 50.2125L53.3832 52.1168L43.13 76.0404L38.6874 74.1366ZM65.7846 67.0567L41.8607 77.3096L39.9567 72.8673L63.8807 62.6144L65.7846 67.0567ZM77.3067 41.8637L67.0538 65.7875L62.611 63.8836L72.8644 39.9597L77.3067 41.8637ZM64.5405 64.5424C60.9271 68.1553 55.0691 68.1553 51.4561 64.5424L54.8738 61.1247C56.5993 62.8502 59.3973 62.8502 61.1228 61.1247L64.5405 64.5424ZM64.5405 51.4576C68.1539 55.071 68.1539 60.929 64.5405 64.5424L61.1228 61.1247C62.8483 59.3988 62.8483 56.6012 61.1228 54.8752L64.5405 51.4576ZM51.4561 51.4576C55.0691 47.8445 60.9271 47.8445 64.5405 51.4576L61.1228 54.8752C59.3973 53.1497 56.5993 53.1497 54.8738 54.8752L51.4561 51.4576ZM51.4561 64.5424C47.8427 60.929 47.8427 55.071 51.4561 51.4576L54.8738 54.8752C53.1478 56.6012 53.1478 59.3988 54.8738 61.1247L51.4561 64.5424Z" fill="white"/>
</svg>
