<svg width="32" height="32" viewBox="0 0 32 32" fill="none" xmlns="http://www.w3.org/2000/svg">
<path d="M28.9375 25C30.7375 22.4125 31.75 19.375 31.75 16C31.75 12.9625 30.85 10.15 29.3875 7.7875C29.3875 7.675 29.275 7.675 29.275 7.5625C26.4625 3.175 21.625 0.25 16 0.25C10.375 0.25 5.42499 3.175 2.72499 7.675C2.72499 7.7875 2.61249 7.7875 2.61249 7.9C1.14999 10.2625 0.362488 13.075 0.362488 16.1125C0.362488 19.4875 1.37499 22.525 3.17499 25.1125L3.28749 25.225C5.98749 29.1625 10.7125 31.75 16 31.75C21.2875 31.75 25.9 29.1625 28.825 25.225C28.825 25.1125 28.825 25.1125 28.9375 25ZM27.25 23.3125L23.2 23.875L21.625 22.3L23.875 15.775L27.3625 14.0875L29.6125 15.4375C29.6125 15.6625 29.6125 15.8875 29.6125 16.225C29.5 18.7 28.7125 21.2875 27.25 23.3125ZM27.1375 8.4625L26.2375 11.8375L22.6375 13.6375L17.125 9.8125V5.425L20.95 3.5125C23.5375 4.525 25.675 6.2125 27.1375 8.4625ZM10.9375 3.5125L14.875 5.425V9.8125L9.36249 13.75L5.64999 11.95L4.74999 8.4625C6.32499 6.2125 8.46249 4.525 10.9375 3.5125ZM2.49999 15.2125L4.74999 13.8625L8.23749 15.6625L10.4875 22.1875L8.91249 23.7625L4.74999 23.3125C3.28749 21.175 2.49999 18.7 2.49999 16C2.49999 15.775 2.49999 15.4375 2.49999 15.2125ZM12.5125 29.05L10.6 25.225L11.95 23.875H20.05L21.4 25.225L19.4875 29.05C18.3625 29.3875 17.2375 29.5 16 29.5C14.7625 29.5 13.6375 29.275 12.5125 29.05Z" fill="white"/>
</svg>
