<svg width="30" height="30" viewBox="0 0 30 30" fill="none" xmlns="http://www.w3.org/2000/svg">
<path d="M1.5 10.5H28.5M7.5 1.5V4.5M22.5 1.5V4.5M6 15H9M13.5 15H16.5M21 15H24M6 19.5H9M13.5 19.5H16.5M21 19.5H24M6 24H9M13.5 24H16.5M21 24H24M6.3 28.5H23.7C25.3801 28.5 26.2203 28.5 26.862 28.173C27.4265 27.8854 27.8854 27.4265 28.173 26.862C28.5 26.2203 28.5 25.3801 28.5 23.7V9.3C28.5 7.61983 28.5 6.77976 28.173 6.13803C27.8854 5.57354 27.4265 5.11459 26.862 4.82698C26.2203 4.5 25.3801 4.5 23.7 4.5H6.3C4.61985 4.5 3.77976 4.5 3.13803 4.82698C2.57354 5.11459 2.11459 5.57354 1.82698 6.13803C1.5 6.77976 1.5 7.61983 1.5 9.3V23.7C1.5 25.3801 1.5 26.2203 1.82698 26.862C2.11459 27.4265 2.57354 27.8854 3.13803 28.173C3.77976 28.5 4.61983 28.5 6.3 28.5Z" stroke="white" stroke-width="2" stroke-linecap="round"/>
</svg>
